<?xml version="1.0" encoding="utf-8"?>
<!-- Generator: Adobe Illustrator 16.0.3, SVG Export Plug-In . SVG Version: 6.00 Build 0)  -->
<!DOCTYPE svg PUBLIC "-//W3C//DTD SVG 1.1//EN" "http://www.w3.org/Graphics/SVG/1.1/DTD/svg11.dtd">
<svg version="1.1" id="Capa_1" xmlns="http://www.w3.org/2000/svg" xmlns:xlink="http://www.w3.org/1999/xlink" x="0px" y="0px"
	 width="500px" height="500px" viewBox="0 0 4535.43 4535.43" enable-background="new 0 0 4535.43 4535.43"
	 xml:space="preserve">
<g>
	<g>
		<path fill-rule="evenodd" clip-rule="evenodd" fill="#FDFDFD" d="M2.834,4538.265c0-1511.81,0-3023.62,0-4535.43
			c1511.81,0,3023.62,0,4535.431,0c0,1511.809,0,3023.619,0,4535.43C3026.454,4538.265,1514.645,4538.265,2.834,4538.265z
			 M2270.174,372.026C1225.712,372.453,378.52,1217.579,374.138,2260.576c-4.419,1051.832,844.388,1899.932,1885.863,1905.869
			c1054.42,6.01,1911.347-848.514,1908.578-1902.569C4165.836,1219.424,3317.33,371.226,2270.174,372.026z"/>
		<path fill-rule="evenodd" clip-rule="evenodd" fill="#3E3C3D" d="M2270.174,372.026
			c1047.156-0.8,1895.662,847.397,1898.405,1891.849c2.769,1054.055-854.158,1908.579-1908.578,1902.569
			c-1041.476-5.937-1890.283-854.037-1885.863-1905.869C378.52,1217.579,1225.712,372.453,2270.174,372.026z M4134.909,2270.752
			c0.925-1028.501-831.563-1859.644-1852.993-1865.15C1249.104,400.034,411.664,1235.17,407.705,2261.28
			c-3.977,1031.205,828.844,1865.56,1852.09,1871.566C3295.433,4138.923,4134.588,3300.385,4134.909,2270.752z"/>
		<path fill-rule="evenodd" clip-rule="evenodd" fill="#FCFCFC" d="M4134.909,2270.752
			c-0.321,1029.633-839.477,1868.171-1875.114,1862.095c-1023.246-6.007-1856.066-840.361-1852.09-1871.566
			c3.958-1026.11,841.399-1861.247,1874.211-1855.679C3303.347,411.108,4135.834,1242.251,4134.909,2270.752z M2605.188,3018.671
			c-5.737-4.611-11.474-9.224-17.212-13.835l-0.047-0.073c-3.543-5.862-6.544-12.161-10.813-17.436
			c-3.065-3.787-9.214-9.587-11.572-8.618c-7.811,3.213-14.557,9.044-21.471,14.195c-0.158,0.119,2.546,4.084,3.916,6.254
			l0.093,0.232c5.818,8.271,11.638,16.54,17.456,24.812c20.863,26.038,48.946,32.194,79.99,27.438
			c32.612-4.994,58.736-33.92,62.153-66.528c3.563-34.005-14.821-57.479-38.427-77.646c-18.161-15.515-38.011-29.033-56.652-44.005
			c-24.049-19.313-26.472-48.095-5.935-63.931c14.785-11.4,37.14-9.37,53.058,5.473c7.1,6.623,13.234,14.283,19.559,21.201
			c27.578-19.474,27.703-21.467,4.253-42.873c-1.39-1.268-2.956-2.335-4.381-3.566c-30.999-26.794-76.952-24.694-103.172,4.727
			c-24.337,27.304-20.099,69.797,10.85,97.121c22.576,19.934,46.368,38.49,69.618,57.66c1.148,2.46,1.92,5.199,3.503,7.336
			c21.062,28.432,18.143,47.648-10.464,68.618c-0.994,0.729-1.3,2.395-1.926,3.624l-0.066,0.027
			c-14.08-0.057-28.159-0.115-42.24-0.172L2605.188,3018.671z M2928.195,3192.285c7.83-28.158,4.006-33.544-23.848-33.544
			c-632.922-0.005-1265.844-0.007-1898.765-0.009c-7.085-0.001-14.247-0.611-21.222,0.262c-3.632,0.454-9.908,3.568-9.887,5.425
			c0.105,9.424,1.881,18.831,3.073,28.242c4.523,0.745,9.045,2.14,13.568,2.14c641.269,0.092,1282.537,0.088,1923.804-0.03
			C2919.344,3194.77,2923.769,3193.148,2928.195,3192.285z M3049.479,994.212c0,6.192,0,12.749,0,19.306
			c0,323.928,0,647.858,0.003,971.787c0,3.779-0.941,7.93,0.329,11.224c1.191,3.093,4.706,7.492,7.252,7.528
			c34.351,0.498,68.711,0.335,105.038,0.335c0-51.757,0-101.952,0-152.782c4.687-0.276,7.433-0.417,10.177-0.604
			c67.555-4.656,130.459-24.118,188.019-59.917c210.309-130.798,269.822-413.284,128.497-616.593
			C3382.296,1021.291,3229.824,975.217,3049.479,994.212z M3050.688,2234.261c0,6.377,0,11.461,0,16.544
			c0,418.062,0,836.125,0,1254.186c0,10.392,0.44,20.809-0.126,31.17c-0.48,8.782,2.961,11.423,11.522,11.277
			c25.027-0.422,50.068-0.087,75.105-0.067c25.657,0.021,25.664,0.011,25.664-25.219c-0.003-425.146-0.005-850.295-0.043-1275.441
			c0-4.027-0.481-8.056-0.761-12.45C3124.754,2234.261,3088.92,2234.261,3050.688,2234.261z M2964.055,990.375
			c-160.634,6.472-289.116,71.213-372.112,208.756c-92.55,153.371-88.878,310.747,10.003,460.274
			c84.497,127.775,209.11,187.553,361.832,193.015c0-38.088,0-73.605,0-109.051c-187.402-8.457-313.657-149.778-324.25-296.744
			c-5.24-72.703,11.601-139.771,53.151-199.646c65.487-94.37,158.3-140.018,271.376-147.089
			C2964.055,1063.202,2964.055,1028.002,2964.055,990.375z M3481.104,3549.129c0-74.017,0-146.527,0-221.13
			c-43.685,0-86.721,0-129.456,0c0-32.497,0-62.883,0-94.623c15.17,0,29.113,0,42.99,0c0-23.705,0-46.008,0-67.938
			c-65.133,0-129.061,0-192.57,0c0,128.476,0,255.691,0,383.272c22.359,0,43.752,0,65.867,0c0-16.673,0-32.221,0-47.769
			c0-15.843,0-31.685,0-47.587c20.04,0,38.164,0,57.21,0c0,16.477,0,31.985,0,47.493c0,15.874,0,31.75,0,47.879
			c21.059,0,40.109,0,60.262,0c0-5.228-0.116-9.398,0.018-13.559c1.073-33.072-6.473-28.009,29.53-28.757
			c8.448-0.174,11.939,2.356,11.236,11.35c-0.798,10.194-0.186,20.499-0.186,31.367
			C3445.188,3549.129,3462.448,3549.129,3481.104,3549.129z M1683.623,2504.532c0.3-83.003-64.089-145.448-149.813-145.288
			c-79.273,0.148-143.429,65.314-143.869,146.134c-0.435,79.938,65.401,146.382,145.192,146.528
			C1618.723,2652.061,1683.321,2587.948,1683.623,2504.532z M2470.805,2504.2c-0.336-81.287-65.552-145.328-147.67-145.016
			c-82.854,0.318-146.17,64.466-146.015,147.935c0.147,80.249,66.42,144.931,148.31,144.755
			C2405.71,2651.701,2471.141,2585.236,2470.805,2504.2z M2974.322,2121.483c1.684,0.86,2.492,1.633,3.302,1.635
			c88.168,0.22,176.335,0.352,264.503,0.601c7.727,0.022,9.279-3.929,9.179-10.748c-0.288-19.329-0.833-38.712,0.263-57.985
			c0.746-13.137-3.64-16.63-16.581-16.543c-82.05,0.548-164.104,0.249-246.157,0.296c-4.603,0.003-9.204,0.584-14.508,0.944
			C2974.322,2067.409,2974.322,2094.126,2974.322,2121.483z M1327.23,2577.023c-23.234,25.751-51.619,40.576-85.84,44.535
			c-61.389,7.099-118.184-34.29-128.77-93.371c-9.27-51.728,14.678-104.783,63.892-127.564
			c47.385-21.935,107.191-11.729,142.475,27.4c9.445,10.475,14.957,3.818,22.211-1.438c7.731-5.605,8.695-10.248,1.783-18.125
			c-30.785-35.085-69.956-49.288-115.639-49.275c-101.497,0.032-170.941,86.767-143.9,185.817
			c34.064,124.768,182.049,129.258,247.281,70.567C1353.379,2595.186,1353.596,2595.428,1327.23,2577.023z M1789.926,3044.67
			c30.911,5.423,32.057,4.98,43.869-19.802c9.307-19.524,18.843-38.979,27.051-58.969c3.133-7.632,7.11-9.725,14.617-9.665
			c32.121,0.253,64.246,0.249,96.367-0.017c8.044-0.066,12.839,2.429,16.317,10.258c9.545,21.482,19.858,42.633,30.282,63.712
			c8.84,17.877,18.163,21.003,39.373,13.068c-4.639-9.76-9.3-19.369-13.798-29.056c-36.309-78.188-72.521-156.424-109.061-234.506
			c-1.946-4.16-6.567-7.069-9.945-10.561c-3.607,3.704-8.506,6.788-10.625,11.206c-28.875,60.24-57.443,120.629-85.919,181.059
			C1815.643,2988.591,1803.199,3015.957,1789.926,3044.67z M2368.156,2769.073c-0.531,2.82-1.172,4.646-1.174,6.47
			c-0.072,86.883,0.017,173.764-0.259,260.646c-0.03,9.505,4.636,10.686,12.319,10.65c44.384-0.2,88.774-0.483,133.152,0.087
			c11.822,0.152,15.282-3.636,15.292-15.327c0.01-11.807-3.771-15.611-15.45-15.406c-33.516,0.585-67.052-0.109-100.57,0.375
			c-10.556,0.153-13.999-3.507-13.749-13.982c0.619-25.954,0.695-51.946,0.048-77.899c-0.268-10.729,3.449-13.839,13.859-13.664
			c32.572,0.545,65.158,0.196,97.74,0.236c9.58,0.013,18.193,1.546,18.331-13.838c0.142-15.472-7.139-16.493-18.921-16.356
			c-32.576,0.385-65.162-0.1-97.739,0.225c-9.688,0.094-13.558-3.403-13.293-13.267c0.504-18.875,0.669-37.79-0.017-56.651
			c-0.391-10.752,3.708-13.765,14-13.612c33.989,0.499,67.996-0.041,101.988,0.339c9.543,0.106,15.122-1.266,14.379-12.943
			c-0.644-10.103,0.246-18.053-14.374-17.778c-44.37,0.829-88.765,0.306-133.15,0.424
			C2376.436,2767.81,2372.303,2768.627,2368.156,2769.073z M2676.303,2641.603c26.685,7.001,30.986,5.141,41.65-17.168
			c9.561-20.009,18.525-40.337,29.015-59.847c2.665-4.955,10.033-10.242,15.399-10.415c31.144-1.001,62.34-0.275,93.51-0.694
			c8.844-0.121,13.84,3.212,17.466,11.101c9.445,20.54,19.523,40.786,29.271,61.188c9.842,20.601,14.986,22.828,39.556,15.904
			c-1.337-3.881-2.322-7.883-4.029-11.548c-39.163-84.14-78.34-168.272-117.805-252.271c-2.172-4.623-6.853-8.066-10.366-12.06
			c-3.522,4.118-8.154,7.708-10.404,12.432c-39.49,82.966-78.711,166.063-117.907,249.169
			C2679.521,2631.921,2678.099,2636.782,2676.303,2641.603z M2765.524,2769.063c-0.868,2.635-1.412,3.521-1.413,4.405
			c-0.132,87.804-0.119,175.608-0.45,263.411c-0.038,10.222,5.924,9.823,12.933,9.813c44.376-0.057,88.76-0.432,133.122,0.339
			c13.051,0.226,12.788-6.478,13.058-15.797c0.297-10.285-1.646-15.343-13.822-15.039c-33.496,0.833-67.033,0.591-100.536-0.052
			c-4.789-0.091-13.535-4.642-13.616-7.335c-0.959-31.914-0.617-63.867-0.617-97.677c43.262,0,85.004,0,126.343,0
			c5.485-29.516,5.259-29.866-22.065-29.949c-29.741-0.089-59.493-0.505-89.218,0.175c-12.002,0.273-15.806-4.147-15.362-15.668
			c0.653-16.968,0.74-34.019-0.18-50.966c-0.683-12.58,2.809-17.47,16.417-17.101c33.963,0.919,67.97,0.339,101.96,0.072
			c3.878-0.031,10.795-1.358,11.084-3.002c1.281-7.295,2.101-15.358,0.027-22.219c-0.844-2.79-9.462-4.486-14.563-4.533
			c-42.485-0.385-84.973-0.316-127.46-0.241C2776.055,2767.708,2770.948,2768.568,2765.524,2769.063z M1437.589,3463.782
			c-29.479-62.868-57.126-121.834-84.775-180.803c-1.929,0.432-3.857,0.861-5.786,1.293c-9.672,74.326-19.344,148.658-29.144,223.97
			c8.301,0,15.18,0,23.216,0c6.327-49.847,12.646-99.648,19.405-152.898c3.553,5.559,5.491,7.955,6.757,10.664
			c19.927,42.649,39.678,85.381,59.742,127.965c2.468,5.237,6.504,9.735,9.813,14.577c3.581-4.544,8.114-8.627,10.575-13.711
			c10.063-20.781,19.451-41.885,29.162-62.836c11.337-24.457,22.75-48.878,35.738-76.768c1.421,6.22,2.072,8.299,2.357,10.427
			c5.568,41.598,11.168,83.191,16.598,124.809c2.726,20.889,3.426,21.476,25.218,16.293
			c-10.083-74.316-20.173-148.693-30.265-223.07c-1.52-0.224-3.041-0.451-4.561-0.677
			C1494.178,3342.078,1466.716,3401.138,1437.589,3463.782z M1735.225,2504.383c0.02,0,0.039,0,0.058,0
			c0,42.931,0.176,85.861-0.087,128.789c-0.105,17.134,12.475,9.601,20.28,10.912c8.174,1.375,11.489-1.696,11.267-11.025
			c-0.814-33.943-0.202-67.921-0.901-101.869c-0.226-10.934,2.915-14.843,14.345-14.854c22.115-0.023,44.344-0.724,66.316-3.088
			c27.707-2.981,50.604-16.877,59.37-43.534c9.03-27.464,8.465-55.553-14.158-79.212c-16.346-17.099-36.436-22.755-58.628-23.463
			c-27.81-0.884-55.665-0.425-83.459-1.543c-11.312-0.455-14.749,3.19-14.61,14.347
			C1735.538,2421.351,1735.225,2462.868,1735.225,2504.383z M1962.525,2504.956c-0.033,0-0.065,0-0.098,0
			c0,41.091,0.439,82.19-0.267,123.271c-0.212,12.283,3.048,16.432,15.799,16.388c12.522-0.043,16.538-3.857,16.148-16.261
			c-0.992-31.586-0.641-63.211-1.341-94.811c-0.27-12.182,3.124-17.725,16.863-17.375c20.217,0.517,40.594-0.604,60.733-2.678
			c26.827-2.76,49.865-14.443,60.87-39.951c11.168-25.887,9.959-52.626-7.257-76.576c-15.686-21.825-38.602-29.354-64.228-29.938
			c-27.851-0.64-55.749,0.104-83.566-1.127c-10.853-0.479-13.996,2.165-13.865,12.951
			C1962.83,2420.88,1962.525,2462.919,1962.525,2504.956z M1617.157,3044.988c0.26-3.161,0.68-5.908,0.684-8.656
			c0.061-34.929,0.324-69.865-0.091-104.79c-0.115-9.698,2.818-13.151,12.883-13.193c21.675-0.087,43.475-0.346,64.988-2.696
			c43.082-4.706,69.376-36.122,66.849-77.872c-2.398-39.613-32.396-67.293-74.162-68.313c-27.829-0.68-55.688-0.7-83.482-2.056
			c-13.382-0.653-17.768,3.369-17.656,17.299c0.638,79.297,0.315,158.602,0.282,237.903c-0.011,25.767-0.061,25.775,25.496,23.85
			C1613.846,3046.397,1614.71,3045.866,1617.157,3044.988z M2076.822,2770.754c40.006,93.108,79.524,185.083,119.044,277.06
			c2.336-0.015,4.671-0.029,7.008-0.043c40.275-92.359,80.552-184.72,121.187-277.901c-30.493-5.477-31.643-4.662-41.904,19.225
			c-19.132,44.537-38.463,88.988-57.898,133.394c-7.559,17.273-15.622,34.324-24.645,54.078c-3.812-8.241-6.278-13.247-8.475-18.371
			c-24.478-57.116-48.86-114.274-73.391-171.37C2108.606,2765.548,2104.112,2763.681,2076.822,2770.754z M1808.152,3396.448
			c0.194-66.327-49.068-118.072-112.806-118.49c-59.311-0.389-110.114,53.381-110.366,116.81
			c-0.262,65.778,49.264,119.738,109.906,119.745C1758.07,3514.521,1807.96,3462.518,1808.152,3396.448z M1136.89,3343.063
			c47.709,57.938,92.648,112.513,137.587,167.086c1.269-0.813,2.539-1.628,3.808-2.441c0-74.264,0-148.528,0-223.624
			c-7.737,0-14.593,0-23.503,0c0,54.456,0,108.207,0,166.235c-47.952-58.435-92.963-113.285-137.976-168.137
			c-1.228,0.78-2.457,1.562-3.686,2.342c0,74.589,0,149.18,0,223.873c8.324,0,15.26,0,23.771,0
			C1136.89,3454.367,1136.89,3400.89,1136.89,3343.063z M1848.059,3282.332c0,77.172,0,151.025,0,228.128
			c27.82-1.708,55.395-0.604,81.705-5.844c23.916-4.765,39.764-22.928,44.39-47.918c5.101-27.559-5.169-50.466-27.503-64.477
			c-3.372-2.115-6.811-4.125-10.554-6.387c4.425-5.124,8.27-9.194,11.687-13.598c24.219-31.217,6.452-80.045-32.449-86.097
			C1893.682,3282.771,1871.389,3283.511,1848.059,3282.332z M2520.004,3406.415c1.307-1.138,2.613-2.275,3.918-3.414
			c4.108,3.536,9.047,6.458,12.188,10.707c20.139,27.242,39.767,54.859,59.803,82.176c11.021,15.027,16.833,16.524,35.893,10.322
			c-23.924-33.055-47.751-65.976-73.171-101.096c7.211-0.396,11.274-0.47,15.303-0.866c31.023-3.054,52.969-24.914,55.37-52.538
			c3.534-40.638-22.955-62.664-45.253-65.158c-28.438-3.184-57.248-3.034-86.467-4.347c0,76.877,0,151.529,0,225.646
			c8.059,0,14.841,0,22.416,0C2520.004,3473.269,2520.004,3439.843,2520.004,3406.415z M2366.721,3282.213
			c-1.925,0.373-3.849,0.75-5.774,1.125c-33.099,74.541-66.197,149.083-99.514,224.111c24.631,3.344,24.566,3.314,33.142-16.334
			c6.778-15.529,13.207-31.254,20.969-46.285c2.168-4.201,8.414-8.695,12.951-8.868c23.072-0.889,46.223-0.951,69.289,0.033
			c5.074,0.216,12.108,4.707,14.469,9.207c8.075,15.392,14.433,31.681,21.521,47.594c8.149,18.29,8.186,18.272,31.803,14.314
			C2432.492,3431.844,2399.605,3357.026,2366.721,3282.213z M2824.4,3282.81c-1.909-0.039-3.819-0.076-5.729-0.116
			c-33.214,74.757-66.431,149.512-99.938,224.921c24.861,2.815,24.827,2.8,33.498-16.867c6.842-15.513,13.235-31.27,21.034-46.29
			c2.145-4.127,8.536-8.352,13.127-8.521c23.101-0.853,46.263,0.033,69.378-0.589c8.198-0.222,11.693,3.225,14.564,10.048
			c6.574,15.632,13.745,31.013,20.66,46.501c8.577,19.211,8.573,19.214,31.906,15.305
			C2889.981,3432.208,2857.19,3357.508,2824.4,3282.81z M2522.233,2367.009c-0.362,3.403-0.815,5.667-0.816,7.933
			c-0.05,85.978,0.087,171.958-0.266,257.938c-0.043,10.42,5.147,11.502,13.215,11.472c37.793-0.149,75.595-0.475,113.379,0.133
			c11.854,0.189,12.761-5.65,12.704-14.881c-0.059-9.516-0.389-16.328-13.299-15.865c-24.533,0.877-49.122,0.25-73.688,0.21
			c-20.135-0.03-20.115-0.056-20.114-20.095c0.008-71.336-0.258-142.673,0.262-214.007c0.083-11.415-3.119-15.801-14.415-14.138
			C2533.726,2366.515,2528.147,2366.581,2522.233,2367.009z M3019.57,2204.737c62.881,0,124.611,0.134,186.337-0.433
			c2.813-0.026,7.677-6.213,7.967-9.822c0.979-12.195-0.388-24.575,0.51-36.784c0.854-11.635-3.9-14.297-14.724-14.214
			c-55.714,0.432-111.432,0.152-167.15,0.198c-4.103,0.003-8.205,0.604-12.939,0.978
			C3019.57,2164.521,3019.57,2183.263,3019.57,2204.737z M2080.331,3507.966c34.921,0,68.57,0,102.363,0c0-8.374,0-15.711,0-24.662
			c-26.52,0-52.208,0-79.477,0c0-67.34,0-133.07,0-199.088c-8.49,0-15.31,0-22.886,0
			C2080.331,3359.02,2080.331,3432.828,2080.331,3507.966z M2035.048,3508.367c0-70.051,0.032-138.372-0.02-206.693
			c-0.015-20.546-1.841-21.772-23.419-16.305c0,74.118,0,148.344,0,222.998C2019.535,3508.367,2026.464,3508.367,2035.048,3508.367z
			 M2691.527,3508.037c0-75.17,0-149.377,0-223.661c-8.236,0-15.42,0-22.844,0c0,75.102,0,148.976,0,223.661
			C2676.593,3508.037,2683.79,3508.037,2691.527,3508.037z M1044.573,3284.021c0,75.964,0,150.147,0,223.876
			c8.098,0,14.89,0,21.009,0c0-75.314,0-149.527,0-223.876C1058.023,3284.021,1051.605,3284.021,1044.573,3284.021z
			 M2212.366,3284.021c0,75.878,0,150.033,0,223.803c8.014,0,14.782,0,21.015,0c0-75.288,0-149.422,0-223.803
			C2225.807,3284.021,2219.404,3284.021,2212.366,3284.021z"/>
		<path fill-rule="evenodd" clip-rule="evenodd" fill="#211F21" d="M3049.479,994.212
			c180.346-18.996,332.817,27.079,439.314,180.284c141.325,203.31,81.812,485.795-128.497,616.593
			c-57.56,35.798-120.464,55.26-188.019,59.917c-2.744,0.188-5.49,0.328-10.177,0.604c0,50.83,0,101.024,0,152.782
			c-36.327,0-70.688,0.163-105.038-0.335c-2.546-0.036-6.061-4.435-7.252-7.528c-1.271-3.294-0.329-7.445-0.329-11.224
			c-0.003-323.929-0.003-647.859-0.003-971.787C3049.479,1006.961,3049.479,1000.405,3049.479,994.212z M3163.816,1104.722
			c0,212.369,0,422.143,0,633.533c113.322-4.442,201.376-53.022,258.905-148.405c66.406-110.104,66.857-224.803,0.739-335.398
			C3365.879,1158.137,3277.63,1109.478,3163.816,1104.722z"/>
		<path fill-rule="evenodd" clip-rule="evenodd" fill="#232023" d="M3050.688,2234.261c38.231,0,74.065,0,111.362,0
			c0.279,4.395,0.761,8.423,0.761,12.45c0.038,425.146,0.04,850.295,0.043,1275.441c0,25.229-0.007,25.239-25.664,25.219
			c-25.037-0.02-50.078-0.354-75.105,0.067c-8.562,0.146-12.003-2.495-11.522-11.277c0.566-10.361,0.126-20.778,0.126-31.17
			c0-418.062,0-836.124,0-1254.186C3050.688,2245.722,3050.688,2240.638,3050.688,2234.261z"/>
		<path fill-rule="evenodd" clip-rule="evenodd" fill="#211F21" d="M2964.055,990.375c0,37.628,0,72.827,0,109.516
			c-113.076,7.071-205.889,52.719-271.376,147.089c-41.551,59.875-58.392,126.943-53.151,199.646
			c10.593,146.965,136.848,288.287,324.25,296.744c0,35.445,0,70.963,0,109.051c-152.722-5.462-277.335-65.24-361.832-193.015
			c-98.881-149.527-102.553-306.903-10.003-460.274C2674.938,1061.588,2803.421,996.847,2964.055,990.375z"/>
		<path fill-rule="evenodd" clip-rule="evenodd" fill="#242224" d="M3481.104,3549.129c-18.655,0-35.915,0-55.099,0
			c0-10.868-0.612-21.173,0.186-31.367c0.703-8.993-2.788-11.523-11.236-11.35c-36.003,0.748-28.457-4.315-29.53,28.757
			c-0.134,4.16-0.018,8.331-0.018,13.559c-20.152,0-39.203,0-60.262,0c0-16.129,0-32.005,0-47.879c0-15.508,0-31.017,0-47.493
			c-19.046,0-37.17,0-57.21,0c0,15.902,0,31.744,0,47.587c0,15.548,0,31.096,0,47.769c-22.115,0-43.508,0-65.867,0
			c0-127.581,0-254.797,0-383.272c63.51,0,127.438,0,192.57,0c0,21.93,0,44.232,0,67.938c-13.877,0-27.82,0-42.99,0
			c0,31.74,0,62.126,0,94.623c42.735,0,85.771,0,129.456,0C3481.104,3402.602,3481.104,3475.112,3481.104,3549.129z"/>
		<path fill-rule="evenodd" clip-rule="evenodd" fill="#E03791" d="M1683.623,2504.532c-0.302,83.416-64.9,147.528-148.489,147.374
			c-79.791-0.146-145.627-66.59-145.192-146.528c0.44-80.819,64.596-145.985,143.869-146.134
			C1619.534,2359.084,1683.923,2421.529,1683.623,2504.532z M1536.973,2620.366c66.42,0.907,114.435-49.661,115.15-114.096
			c0.76-68.463-50.932-118.158-120.01-116.716c-58.733,1.227-111.417,50.469-109.954,119.756
			C1423.489,2572.266,1473.246,2621.036,1536.973,2620.366z"/>
		<path fill-rule="evenodd" clip-rule="evenodd" fill="#E03791" d="M2470.805,2504.2c0.336,81.036-65.095,147.501-145.375,147.674
			c-81.89,0.176-148.163-64.506-148.31-144.755c-0.155-83.469,63.161-147.616,146.015-147.935
			C2405.253,2358.872,2470.469,2422.913,2470.805,2504.2z M2320.873,2620.402c66.49,1.153,116.707-46.718,117.865-112.235
			c1.248-70.498-50.361-116.083-109.278-118.403c-67.611-2.662-119.313,47.553-121.166,112.64
			C2206.417,2568.331,2261.805,2623.072,2320.873,2620.402z"/>
		<path fill-rule="evenodd" clip-rule="evenodd" fill="#E72D90" d="M2974.322,2121.483c0-27.357,0-54.074,0-81.8
			c5.304-0.36,9.905-0.941,14.508-0.944c82.053-0.047,164.107,0.252,246.157-0.296c12.941-0.087,17.327,3.406,16.581,16.543
			c-1.096,19.273-0.551,38.656-0.263,57.985c0.101,6.818-1.452,10.77-9.179,10.748c-88.168-0.249-176.335-0.38-264.503-0.601
			C2976.814,2123.116,2976.006,2122.343,2974.322,2121.483z"/>
		<path fill-rule="evenodd" clip-rule="evenodd" fill="#CE418E" d="M977.546,3192.661c-1.192-9.411-2.968-18.818-3.073-28.242
			c-0.021-1.856,6.254-4.971,9.887-5.425c6.976-0.873,14.137-0.263,21.222-0.262c632.921,0.002,1265.843,0.004,1898.765,0.009
			c27.854,0,31.678,5.386,23.849,33.541c-6.13-0.152-12.262-0.433-18.396-0.433c-638.914-0.019-1277.828-0.021-1916.743,0.016
			C987.887,3191.867,982.717,3192.386,977.546,3192.661z M2920.268,3188.938c4.754-21.864,4.152-22.664-15.891-22.664
			c-634.945-0.004-1269.893-0.004-1904.839,0c-3.307,0-7.066-0.957-9.816,0.292c-4.198,1.907-11.289,6.384-10.837,7.953
			c1.478,5.132,5.136,10.242,9.31,13.753c2.269,1.906,7.277,0.657,11.049,0.657c635.418,0.013,1270.839,0.011,1906.257,0.009
			C2910.557,3188.938,2915.613,3188.938,2920.268,3188.938z"/>
		<path fill-rule="evenodd" clip-rule="evenodd" fill="#E03791" d="M1327.23,2577.023c26.366,18.404,26.148,18.162,3.493,38.546
			c-65.232,58.69-213.217,54.2-247.281-70.567c-27.041-99.051,42.403-185.785,143.9-185.817
			c45.684-0.013,84.854,14.19,115.639,49.275c6.912,7.877,5.949,12.52-1.783,18.125c-7.254,5.257-12.766,11.913-22.211,1.438
			c-35.284-39.129-95.09-49.335-142.475-27.4c-49.213,22.781-73.161,75.837-63.892,127.564
			c10.585,59.081,67.381,100.47,128.77,93.371C1275.611,2617.6,1303.997,2602.774,1327.23,2577.023z"/>
		<path fill-rule="evenodd" clip-rule="evenodd" fill="#E13792" d="M1789.926,3044.67c13.272-28.713,25.717-56.079,38.529-83.271
			c28.477-60.43,57.044-120.818,85.919-181.059c2.118-4.418,7.018-7.502,10.625-11.206c3.377,3.491,7.999,6.4,9.945,10.561
			c36.539,78.082,72.751,156.318,109.061,234.506c4.498,9.687,9.159,19.296,13.798,29.056c-21.21,7.935-30.533,4.809-39.373-13.068
			c-10.424-21.079-20.737-42.229-30.282-63.712c-3.478-7.829-8.273-10.324-16.317-10.258c-32.121,0.266-64.246,0.27-96.367,0.017
			c-7.507-0.06-11.484,2.033-14.617,9.665c-8.208,19.989-17.744,39.444-27.051,58.969
			C1821.983,3049.65,1820.837,3050.093,1789.926,3044.67z M1969.532,2925.219c-15.189-32.266-28.946-61.492-42.702-90.718
			c-1.416,0.076-2.832,0.153-4.248,0.229c-13.97,29.732-27.939,59.466-42.515,90.488
			C1910.625,2925.219,1938.178,2925.219,1969.532,2925.219z"/>
		<path fill-rule="evenodd" clip-rule="evenodd" fill="#E03590" d="M2368.156,2769.073c4.146-0.446,8.279-1.264,12.413-1.274
			c44.386-0.118,88.78,0.405,133.15-0.424c14.62-0.274,13.73,7.676,14.374,17.778c0.743,11.678-4.836,13.05-14.379,12.943
			c-33.992-0.38-67.999,0.16-101.988-0.339c-10.292-0.152-14.391,2.86-14,13.612c0.686,18.861,0.521,37.776,0.017,56.651
			c-0.265,9.863,3.604,13.36,13.293,13.267c32.577-0.324,65.163,0.16,97.739-0.225c11.782-0.137,19.063,0.885,18.921,16.356
			c-0.138,15.384-8.751,13.851-18.331,13.838c-32.582-0.04-65.168,0.309-97.74-0.236c-10.41-0.175-14.127,2.936-13.859,13.664
			c0.647,25.953,0.571,51.945-0.048,77.899c-0.25,10.476,3.193,14.136,13.749,13.982c33.519-0.484,67.055,0.21,100.57-0.375
			c11.679-0.205,15.46,3.6,15.45,15.406c-0.01,11.691-3.47,15.479-15.292,15.327c-44.378-0.57-88.769-0.287-133.152-0.087
			c-7.684,0.035-12.35-1.146-12.319-10.65c0.275-86.882,0.187-173.763,0.259-260.646
			C2366.984,2773.719,2367.625,2771.894,2368.156,2769.073z"/>
		<path fill-rule="evenodd" clip-rule="evenodd" fill="#E13792" d="M2676.303,2641.603c1.796-4.82,3.219-9.682,5.354-14.208
			c39.196-83.106,78.417-166.203,117.907-249.169c2.25-4.724,6.882-8.313,10.404-12.432c3.514,3.993,8.194,7.437,10.366,12.06
			c39.465,83.998,78.642,168.131,117.805,252.271c1.707,3.665,2.692,7.667,4.029,11.548c-24.569,6.924-29.714,4.696-39.556-15.904
			c-9.747-20.402-19.825-40.648-29.271-61.188c-3.626-7.889-8.622-11.222-17.466-11.101c-31.17,0.419-62.366-0.307-93.51,0.694
			c-5.366,0.173-12.734,5.46-15.399,10.415c-10.489,19.51-19.454,39.838-29.015,59.847
			C2707.289,2646.743,2702.987,2648.604,2676.303,2641.603z M2765.234,2523.345c31.928,0,59.828,0,90.061,0
			c-15.345-32.313-29.655-62.453-45.344-95.497C2794.316,2461.237,2780.261,2491.253,2765.234,2523.345z"/>
		<path fill-rule="evenodd" clip-rule="evenodd" fill="#E03490" d="M2765.524,2769.063c5.424-0.494,10.53-1.354,15.64-1.362
			c42.487-0.075,84.975-0.144,127.46,0.241c5.102,0.047,13.72,1.743,14.563,4.533c2.073,6.86,1.254,14.924-0.027,22.219
			c-0.289,1.644-7.206,2.971-11.084,3.002c-33.99,0.267-67.997,0.847-101.96-0.072c-13.608-0.369-17.1,4.521-16.417,17.101
			c0.92,16.947,0.833,33.998,0.18,50.966c-0.443,11.521,3.36,15.941,15.362,15.668c29.725-0.68,59.477-0.264,89.218-0.175
			c27.324,0.083,27.551,0.434,22.065,29.949c-41.339,0-83.081,0-126.343,0c0,33.81-0.342,65.763,0.617,97.677
			c0.081,2.693,8.827,7.244,13.616,7.335c33.503,0.643,67.04,0.885,100.536,0.052c12.176-0.304,14.119,4.754,13.822,15.039
			c-0.27,9.319-0.007,16.022-13.058,15.797c-44.362-0.771-88.746-0.396-133.122-0.339c-7.009,0.01-12.971,0.408-12.933-9.813
			c0.331-87.803,0.318-175.607,0.45-263.411C2764.112,2772.583,2764.656,2771.697,2765.524,2769.063z"/>
		<path fill-rule="evenodd" clip-rule="evenodd" fill="#2D2C2E" d="M1437.589,3463.782c29.127-62.645,56.589-121.704,84.051-180.766
			c1.52,0.226,3.041,0.453,4.561,0.677c10.091,74.377,20.182,148.754,30.265,223.07c-21.792,5.183-22.493,4.596-25.218-16.293
			c-5.43-41.617-11.03-83.211-16.598-124.809c-0.285-2.128-0.936-4.207-2.357-10.427c-12.987,27.89-24.4,52.311-35.738,76.768
			c-9.711,20.951-19.099,42.055-29.162,62.836c-2.461,5.084-6.994,9.167-10.575,13.711c-3.309-4.842-7.345-9.34-9.813-14.577
			c-20.064-42.584-39.815-85.315-59.742-127.965c-1.267-2.709-3.204-5.105-6.757-10.664c-6.758,53.25-13.078,103.052-19.405,152.898
			c-8.036,0-14.915,0-23.216,0c9.799-75.312,19.472-149.644,29.144-223.97c1.928-0.432,3.856-0.861,5.786-1.293
			C1380.463,3341.948,1408.11,3400.914,1437.589,3463.782z"/>
		<path fill-rule="evenodd" clip-rule="evenodd" fill="#E03892" d="M1735.225,2504.383c0-41.515,0.313-83.032-0.208-124.54
			c-0.139-11.156,3.298-14.802,14.61-14.347c27.794,1.118,55.649,0.659,83.459,1.543c22.192,0.708,42.282,6.364,58.628,23.463
			c22.623,23.659,23.188,51.748,14.158,79.212c-8.765,26.657-31.663,40.553-59.37,43.534c-21.973,2.364-44.201,3.064-66.316,3.088
			c-11.43,0.011-14.57,3.92-14.345,14.854c0.699,33.948,0.087,67.926,0.901,101.869c0.223,9.329-3.092,12.4-11.267,11.025
			c-7.805-1.312-20.385,6.222-20.28-10.912c0.263-42.928,0.087-85.858,0.087-128.789
			C1735.264,2504.383,1735.245,2504.383,1735.225,2504.383z M1766.035,2439.688c0,11.795-0.621,23.643,0.348,35.359
			c0.327,3.949,4.733,10.855,7.203,10.823c24.893-0.322,50.16,0.483,74.539-3.646c21.93-3.714,32.291-22.518,30.916-45.721
			c-1.19-20.052-15.235-35.98-36.845-38.217c-21.967-2.274-44.195-2.497-66.306-2.448c-3.292,0.007-8.975,6.15-9.401,9.927
			C1765.224,2416.946,1766.037,2428.362,1766.035,2439.688z"/>
		<path fill-rule="evenodd" clip-rule="evenodd" fill="#E23591" d="M1962.525,2504.956c0-42.037,0.305-84.076-0.209-126.107
			c-0.131-10.786,3.012-13.43,13.865-12.951c27.818,1.231,55.715,0.487,83.566,1.127c25.626,0.585,48.542,8.113,64.228,29.938
			c17.216,23.95,18.425,50.689,7.257,76.576c-11.005,25.508-34.043,37.191-60.87,39.951c-20.139,2.073-40.516,3.194-60.733,2.678
			c-13.739-0.35-17.132,5.193-16.863,17.375c0.701,31.6,0.349,63.225,1.341,94.811c0.389,12.403-3.626,16.218-16.148,16.261
			c-12.751,0.044-16.011-4.104-15.799-16.388c0.706-41.08,0.267-82.18,0.267-123.271
			C1962.46,2504.956,1962.492,2504.956,1962.525,2504.956z M1992.864,2439.556c0.014,0,0.029,0,0.042,0
			c0,11.805-0.757,23.688,0.41,35.379c0.41,4.116,5.448,11.021,8.518,11.102c21.675,0.569,43.583,1.355,65.039-1.157
			c25.339-2.967,40.02-21.709,39.397-45.505c-0.623-23.801-14.513-38.971-41.135-41.706c-20.583-2.116-41.438-2.133-62.157-1.867
			c-3.413,0.043-9.218,6.059-9.651,9.807C1992.035,2416.793,1992.864,2428.223,1992.864,2439.556z"/>
		<path fill-rule="evenodd" clip-rule="evenodd" fill="#E03791" d="M1617.157,3044.988c-2.447,0.878-3.311,1.409-4.209,1.476
			c-25.557,1.926-25.506,1.917-25.496-23.85c0.033-79.302,0.356-158.606-0.282-237.903c-0.112-13.93,4.274-17.952,17.656-17.299
			c27.794,1.355,55.653,1.376,83.482,2.056c41.766,1.02,71.763,28.699,74.162,68.313c2.527,41.75-23.768,73.166-66.849,77.872
			c-21.513,2.351-43.313,2.609-64.988,2.696c-10.065,0.042-12.998,3.495-12.883,13.193c0.415,34.925,0.152,69.861,0.091,104.79
			C1617.837,3039.08,1617.417,3041.827,1617.157,3044.988z M1617.996,2796.465c0,30.494-0.173,57.727,0.311,84.947
			c0.042,2.32,4.497,6.568,6.847,6.529c24.465-0.398,49.125,0.14,73.311-2.905c19.586-2.467,32.396-21.398,32.974-42.102
			c0.486-17.402-13.448-39.099-30.415-41.247C1674.179,2798.289,1646.926,2798.11,1617.996,2796.465z"/>
		<path fill-rule="evenodd" clip-rule="evenodd" fill="#E03791" d="M2076.822,2770.754c27.29-7.073,31.784-5.206,40.925,16.07
			c24.53,57.096,48.913,114.254,73.391,171.37c2.197,5.124,4.663,10.13,8.475,18.371c9.023-19.754,17.086-36.805,24.645-54.078
			c19.436-44.405,38.767-88.856,57.898-133.394c10.262-23.887,11.411-24.701,41.904-19.225
			c-40.635,93.182-80.911,185.542-121.187,277.901c-2.337,0.014-4.672,0.028-7.008,0.043
			C2156.347,2955.837,2116.828,2863.862,2076.822,2770.754z"/>
		<path fill-rule="evenodd" clip-rule="evenodd" fill="#E03791" d="M2656.453,2939.273c-23.25-19.17-47.042-37.727-69.618-57.66
			c-30.948-27.324-35.187-69.817-10.85-97.121c26.22-29.421,72.173-31.521,103.172-4.727c1.425,1.231,2.991,2.299,4.381,3.566
			c23.45,21.406,23.325,23.399-4.253,42.873c-6.324-6.918-12.459-14.578-19.559-21.201c-15.918-14.843-38.272-16.873-53.058-5.473
			c-20.537,15.836-18.114,44.617,5.935,63.931c18.642,14.972,38.491,28.49,56.652,44.005c23.605,20.166,41.989,43.641,38.427,77.646
			c-3.417,32.608-29.541,61.534-62.153,66.528c-31.044,4.756-59.127-1.4-79.99-27.438c-5.818-8.27-11.638-16.541-17.456-24.813
			c0,0-0.093-0.232-0.091-0.231c5.294-4.793,9.988-10.902,16.18-13.718c2.379-1.081,8.368,5.104,12.349,8.413
			c4.036,3.354,7.625,7.25,11.409,10.908l0.047,0.073c5.737,4.611,11.475,9.224,17.212,13.835l0.071,0.036
			c8.45,8.527,31.583,8.622,42.24,0.172c0,0,0.066-0.027,0.065-0.027c2.709-0.507,5.78-0.36,8.072-1.627
			C2685.584,3000.678,2685.953,2959.905,2656.453,2939.273z"/>
		<path fill-rule="evenodd" clip-rule="evenodd" fill="#2B292B" d="M1808.152,3396.448
			c-0.192,66.069-50.083,118.072-113.266,118.064c-60.642-0.007-110.167-53.967-109.906-119.745
			c0.251-63.429,51.055-117.198,110.366-116.81C1759.084,3278.376,1808.346,3330.121,1808.152,3396.448z M1783.223,3395.817
			c-0.137-41.684-22.429-75.592-58.104-88.381c-35.333-12.667-72.002-1.354-96.72,29.836
			c-36.316,45.829-18.984,122.38,32.874,145.199C1721.761,3509.091,1783.45,3465.255,1783.223,3395.817z"/>
		<path fill-rule="evenodd" clip-rule="evenodd" fill="#2A282A" d="M1136.89,3343.063c0,57.826,0,111.304,0,165.334
			c-8.511,0-15.446,0-23.771,0c0-74.693,0-149.284,0-223.873c1.229-0.78,2.458-1.562,3.686-2.342
			c45.013,54.852,90.024,109.702,137.976,168.137c0-58.028,0-111.779,0-166.235c8.911,0,15.766,0,23.503,0
			c0,75.096,0,149.36,0,223.624c-1.269,0.813-2.539,1.628-3.808,2.441C1229.538,3455.576,1184.599,3401.001,1136.89,3343.063z"/>
		<path fill-rule="evenodd" clip-rule="evenodd" fill="#292829" d="M1848.059,3282.332c23.331,1.179,45.623,0.439,67.276,3.809
			c38.9,6.052,56.668,54.88,32.449,86.097c-3.417,4.403-7.262,8.474-11.687,13.598c3.743,2.262,7.182,4.271,10.554,6.387
			c22.334,14.011,32.604,36.918,27.503,64.477c-4.625,24.99-20.474,43.153-44.39,47.918c-26.311,5.24-53.885,4.136-81.705,5.844
			C1848.059,3433.357,1848.059,3359.504,1848.059,3282.332z M1871.022,3483.16c16.258,0,30.896,1.199,45.255-0.294
			c19.376-2.017,33.894-18.172,35.283-36.543c1.34-17.711-8.944-35.143-27.313-39.77c-16.871-4.251-34.747-4.519-53.226-6.663
			C1871.022,3429.638,1871.022,3455.786,1871.022,3483.16z M1870.953,3376.171c22.605-0.37,45.526,4.009,58.65-18.023
			c7.092-11.903,8.895-27.233-1.532-38.373c-15.786-16.861-36.856-11.167-57.118-10.813
			C1870.953,3331.826,1870.953,3353.219,1870.953,3376.171z"/>
		<path fill-rule="evenodd" clip-rule="evenodd" fill="#2A282A" d="M2520.004,3406.415c0,33.428,0,66.854,0,101.432
			c-7.575,0-14.357,0-22.416,0c0-74.116,0-148.769,0-225.646c29.219,1.313,58.029,1.163,86.467,4.347
			c22.298,2.494,48.787,24.521,45.253,65.158c-2.401,27.624-24.347,49.484-55.37,52.538c-4.028,0.396-8.092,0.471-15.303,0.866
			c25.42,35.12,49.247,68.041,73.171,101.096c-19.06,6.202-24.872,4.705-35.893-10.322c-20.036-27.316-39.664-54.934-59.803-82.176
			c-3.142-4.249-8.08-7.171-12.188-10.707C2522.617,3404.14,2521.311,3405.277,2520.004,3406.415z M2520.506,3308.654
			c0,25.013,0,48.369,0,72.909c14.683,0,28.298,0.186,41.904-0.103c4.662-0.1,9.336-1.212,13.94-2.167
			c18.644-3.876,29.72-17.418,29.368-35.722c-0.363-18.771-12.879-33.257-32.301-34.656
			C2556.141,3307.669,2538.703,3308.654,2520.506,3308.654z"/>
		<path fill-rule="evenodd" clip-rule="evenodd" fill="#2B292B" d="M2366.721,3282.213c32.885,74.813,65.771,149.631,98.854,224.897
			c-23.617,3.958-23.653,3.976-31.803-14.314c-7.088-15.913-13.445-32.202-21.521-47.594c-2.36-4.5-9.395-8.991-14.469-9.207
			c-23.066-0.984-46.217-0.922-69.289-0.033c-4.537,0.173-10.783,4.667-12.951,8.868c-7.762,15.031-14.19,30.756-20.969,46.285
			c-8.575,19.648-8.511,19.678-33.142,16.334c33.316-75.028,66.415-149.57,99.514-224.111
			C2362.872,3282.963,2364.796,3282.586,2366.721,3282.213z M2363.937,3334.551c-12.045,27.523-22.35,51.071-33.06,75.545
			c23.048,0,43.803,0,66.838,0C2386.392,3384.771,2375.938,3361.392,2363.937,3334.551z"/>
		<path fill-rule="evenodd" clip-rule="evenodd" fill="#2A282A" d="M2824.4,3282.81c32.79,74.698,65.581,149.398,98.502,224.392
			c-23.333,3.909-23.329,3.906-31.906-15.305c-6.915-15.488-14.086-30.869-20.66-46.501c-2.871-6.823-6.366-10.27-14.564-10.048
			c-23.115,0.622-46.277-0.264-69.378,0.589c-4.591,0.169-10.982,4.394-13.127,8.521c-7.799,15.021-14.192,30.777-21.034,46.29
			c-8.671,19.667-8.637,19.683-33.498,16.867c33.507-75.409,66.724-150.164,99.938-224.921
			C2820.581,3282.733,2822.491,3282.771,2824.4,3282.81z M2821.545,3334.318c-11.822,26.705-22.482,50.791-33.772,76.295
			c23.542,0,44.48,0,67.317,0C2843.959,3385.298,2833.455,3361.407,2821.545,3334.318z"/>
		<path fill-rule="evenodd" clip-rule="evenodd" fill="#E03C94" d="M2522.233,2367.009c5.914-0.428,11.492-0.494,16.961-1.3
			c11.296-1.663,14.498,2.723,14.415,14.138c-0.52,71.334-0.254,142.671-0.262,214.007c-0.001,20.039-0.021,20.064,20.114,20.095
			c24.566,0.04,49.155,0.667,73.688-0.21c12.91-0.463,13.24,6.35,13.299,15.865c0.057,9.23-0.85,15.07-12.704,14.881
			c-37.784-0.607-75.586-0.282-113.379-0.133c-8.067,0.03-13.258-1.052-13.215-11.472c0.353-85.98,0.216-171.961,0.266-257.938
			C2521.418,2372.676,2521.871,2370.412,2522.233,2367.009z"/>
		<path fill-rule="evenodd" clip-rule="evenodd" fill="#E23591" d="M3019.57,2204.737c0-21.474,0-40.215,0-60.077
			c4.734-0.374,8.837-0.975,12.939-0.978c55.719-0.046,111.437,0.234,167.15-0.198c10.823-0.083,15.577,2.579,14.724,14.214
			c-0.897,12.209,0.47,24.588-0.51,36.784c-0.29,3.608-5.154,9.795-7.967,9.822
			C3144.182,2204.871,3082.451,2204.737,3019.57,2204.737z"/>
		<path fill-rule="evenodd" clip-rule="evenodd" fill="#292829" d="M2080.331,3507.966c0-75.138,0-148.946,0-223.75
			c7.577,0,14.396,0,22.886,0c0,66.018,0,131.748,0,199.088c27.269,0,52.957,0,79.477,0c0,8.951,0,16.288,0,24.662
			C2148.9,3507.966,2115.252,3507.966,2080.331,3507.966z"/>
		<path fill-rule="evenodd" clip-rule="evenodd" fill="#353537" d="M2035.048,3508.367c-8.584,0-15.513,0-23.438,0
			c0-74.654,0-148.88,0-222.998c21.578-5.468,23.404-4.241,23.419,16.305C2035.08,3369.995,2035.048,3438.316,2035.048,3508.367z"/>
		<path fill-rule="evenodd" clip-rule="evenodd" fill="#353537" d="M2691.527,3508.037c-7.737,0-14.935,0-22.844,0
			c0-74.686,0-148.56,0-223.661c7.424,0,14.607,0,22.844,0C2691.527,3358.66,2691.527,3432.867,2691.527,3508.037z"/>
		<path fill-rule="evenodd" clip-rule="evenodd" fill="#292829" d="M1044.573,3284.021c7.033,0,13.451,0,21.009,0
			c0,74.349,0,148.562,0,223.876c-6.119,0-12.911,0-21.009,0C1044.573,3434.168,1044.573,3359.984,1044.573,3284.021z"/>
		<path fill-rule="evenodd" clip-rule="evenodd" fill="#292829" d="M2212.366,3284.021c7.038,0,13.44,0,21.015,0
			c0,74.381,0,148.515,0,223.803c-6.232,0-13.001,0-21.015,0C2212.366,3434.055,2212.366,3359.899,2212.366,3284.021z"/>
		<path fill-rule="evenodd" clip-rule="evenodd" fill="#F77EC2" d="M977.546,3192.661c5.171-0.275,10.34-0.794,15.511-0.796
			c638.915-0.036,1277.829-0.034,1916.743-0.016c6.134,0,12.266,0.28,18.396,0.433c-4.428,0.866-8.853,2.487-13.277,2.488
			c-641.268,0.118-1282.535,0.122-1923.804,0.03C986.591,3194.801,982.069,3193.406,977.546,3192.661z"/>
		<path fill-rule="evenodd" clip-rule="evenodd" fill="#F77EC2" d="M2656.453,2939.273c29.5,20.632,29.131,61.404-0.815,77.951
			c-2.292,1.267-5.363,1.12-8.072,1.627c0.627-1.229,0.933-2.895,1.927-3.624c28.606-20.97,31.525-40.187,10.464-68.618
			C2658.373,2944.473,2657.602,2941.733,2656.453,2939.273z"/>
		<path fill-rule="evenodd" clip-rule="evenodd" fill="#F77EC2" d="M2587.93,3004.763c-3.784-3.658-7.373-7.554-11.409-10.908
			c-3.98-3.31-9.97-9.494-12.349-8.413c-6.191,2.815-10.886,8.925-16.18,13.718c-1.372-2.171-4.076-6.136-3.918-6.255
			c6.914-5.151,13.66-10.982,21.471-14.195c2.358-0.969,8.507,4.831,11.572,8.618
			C2581.386,2992.602,2584.387,2998.9,2587.93,3004.763z"/>
		<path fill-rule="evenodd" clip-rule="evenodd" fill="#F77EC2" d="M2647.5,3018.879c-10.657,8.45-33.79,8.355-42.24-0.172
			C2619.341,3018.764,2633.42,3018.822,2647.5,3018.879z"/>
		<path fill-rule="evenodd" clip-rule="evenodd" fill="#F77EC2" d="M2548.083,2999.391c5.818,8.271,11.638,16.543,17.456,24.813
			C2559.721,3015.931,2553.901,3007.662,2548.083,2999.391z"/>
		<path fill-rule="evenodd" clip-rule="evenodd" fill="#F77EC2" d="M2605.188,3018.671c-5.737-4.611-11.475-9.224-17.212-13.835
			C2593.715,3009.447,2599.451,3014.06,2605.188,3018.671z"/>
		<path fill-rule="evenodd" clip-rule="evenodd" fill="#FCFBFC" d="M3163.816,1104.722
			c113.813,4.756,202.063,53.415,259.645,149.729c66.118,110.595,65.667,225.294-0.739,335.398
			c-57.529,95.383-145.583,143.963-258.905,148.405C3163.816,1526.865,3163.816,1317.091,3163.816,1104.722z"/>
		<path fill-rule="evenodd" clip-rule="evenodd" fill="#FCF9FB" d="M1536.973,2620.366c-63.727,0.67-113.484-48.101-114.814-111.056
			c-1.463-69.287,51.221-118.529,109.954-119.756c69.078-1.442,120.771,48.253,120.01,116.716
			C1651.408,2570.705,1603.394,2621.273,1536.973,2620.366z"/>
		<path fill-rule="evenodd" clip-rule="evenodd" fill="#FCF9FB" d="M2320.873,2620.402c-59.068,2.67-114.456-52.071-112.579-117.999
			c1.854-65.087,53.555-115.302,121.166-112.64c58.917,2.32,110.526,47.905,109.278,118.403
			C2437.58,2573.685,2387.363,2621.556,2320.873,2620.402z"/>
		<path fill-rule="evenodd" clip-rule="evenodd" fill="#E9268E" d="M2920.268,3188.938c-4.654,0-9.711,0-14.768,0
			c-635.418,0.002-1270.838,0.004-1906.257-0.009c-3.771,0-8.78,1.249-11.049-0.657c-4.173-3.511-7.832-8.621-9.31-13.753
			c-0.451-1.569,6.64-6.046,10.837-7.953c2.75-1.249,6.509-0.292,9.816-0.292c634.946-0.004,1269.894-0.004,1904.839,0
			C2924.42,3166.273,2925.021,3167.073,2920.268,3188.938z"/>
		<path fill-rule="evenodd" clip-rule="evenodd" fill="#F9EAF6" d="M1969.532,2925.219c-31.354,0-58.907,0-89.465,0
			c14.576-31.022,28.545-60.756,42.515-90.488c1.416-0.076,2.832-0.153,4.248-0.229
			C1940.586,2863.727,1954.343,2892.953,1969.532,2925.219z"/>
		<path fill-rule="evenodd" clip-rule="evenodd" fill="#F9EAF6" d="M2765.234,2523.345c15.026-32.092,29.082-62.107,44.717-95.497
			c15.688,33.044,29.999,63.184,45.344,95.497C2825.063,2523.345,2797.162,2523.345,2765.234,2523.345z"/>
		<path fill-rule="evenodd" clip-rule="evenodd" fill="#FBF4FA" d="M1766.037,2439.688c0-11.325-0.813-22.741,0.453-33.922
			c0.426-3.776,6.109-9.92,9.401-9.927c22.111-0.049,44.338,0.174,66.306,2.448c21.61,2.236,35.654,18.165,36.845,38.217
			c1.375,23.203-8.986,42.007-30.916,45.721c-24.379,4.129-49.646,3.323-74.539,3.646c-2.47,0.032-6.876-6.874-7.203-10.823
			C1765.414,2463.33,1766.035,2451.482,1766.037,2439.688z"/>
		<path fill-rule="evenodd" clip-rule="evenodd" fill="#FBF4FA" d="M1992.864,2439.556c0-11.333-0.829-22.763,0.463-33.948
			c0.434-3.748,6.238-9.764,9.651-9.807c20.719-0.266,41.574-0.249,62.157,1.867c26.622,2.735,40.512,17.905,41.135,41.706
			c0.623,23.796-14.059,42.538-39.397,45.505c-21.457,2.513-43.364,1.727-65.039,1.157c-3.07-0.08-8.108-6.985-8.518-11.102
			c-1.167-11.69-0.41-23.574-0.41-35.379C1992.893,2439.556,1992.877,2439.556,1992.864,2439.556z"/>
		<path fill-rule="evenodd" clip-rule="evenodd" fill="#FBF4FA" d="M1617.996,2796.465c28.93,1.646,56.183,1.824,83.028,5.223
			c16.966,2.148,30.9,23.845,30.415,41.247c-0.577,20.703-13.387,39.635-32.974,42.102c-24.186,3.045-48.845,2.507-73.311,2.905
			c-2.35,0.039-6.806-4.209-6.847-6.529C1617.823,2854.191,1617.996,2826.959,1617.996,2796.465z"/>
		<path fill-rule="evenodd" clip-rule="evenodd" fill="#FAF9FA" d="M1783.223,3395.817c0.227,69.438-61.462,113.273-121.951,86.654
			c-51.858-22.819-69.19-99.37-32.874-145.199c24.718-31.19,61.387-42.503,96.72-29.836
			C1760.794,3320.226,1783.086,3354.134,1783.223,3395.817z"/>
		<path fill-rule="evenodd" clip-rule="evenodd" fill="#F6F6F6" d="M1871.022,3483.16c0-27.374,0-53.522,0-83.27
			c18.479,2.145,36.354,2.412,53.226,6.663c18.369,4.627,28.652,22.059,27.313,39.77c-1.39,18.371-15.907,34.526-35.283,36.543
			C1901.918,3484.359,1887.28,3483.16,1871.022,3483.16z"/>
		<path fill-rule="evenodd" clip-rule="evenodd" fill="#F6F6F6" d="M1870.953,3376.171c0-22.952,0-44.345,0-67.209
			c20.262-0.354,41.332-6.049,57.118,10.813c10.426,11.14,8.624,26.47,1.532,38.373
			C1916.479,3380.18,1893.559,3375.801,1870.953,3376.171z"/>
		<path fill-rule="evenodd" clip-rule="evenodd" fill="#F6F6F6" d="M2520.506,3308.654c18.197,0,35.635-0.985,52.912,0.262
			c19.422,1.399,31.938,15.886,32.301,34.656c0.352,18.304-10.725,31.846-29.368,35.722c-4.604,0.955-9.278,2.067-13.94,2.167
			c-13.606,0.288-27.222,0.103-41.904,0.103C2520.506,3357.023,2520.506,3333.667,2520.506,3308.654z"/>
		<path fill-rule="evenodd" clip-rule="evenodd" fill="#F2F1F2" d="M2363.937,3334.551c12.001,26.841,22.455,50.221,33.778,75.545
			c-23.035,0-43.79,0-66.838,0C2341.587,3385.622,2351.892,3362.074,2363.937,3334.551z"/>
		<path fill-rule="evenodd" clip-rule="evenodd" fill="#F2F1F2" d="M2821.545,3334.318c11.91,27.089,22.414,50.979,33.545,76.295
			c-22.837,0-43.775,0-67.317,0C2799.063,3385.109,2809.723,3361.023,2821.545,3334.318z"/>
	</g>
</g>
</svg>
